<svg width="48" height="48" viewBox="0 0 48 48" fill="none" xmlns="http://www.w3.org/2000/svg">
<rect width="48" height="48" rx="5" fill="white"/>
<path d="M27.4531 21.5469H21.5469V27.4531H27.4531V21.5469Z" stroke="#094854" stroke-width="1.5" stroke-linecap="round" stroke-linejoin="round"/>
<path d="M32.0938 16.0625H16.9062C16.4403 16.0625 16.0625 16.4403 16.0625 16.9062V32.0938C16.0625 32.5597 16.4403 32.9375 16.9062 32.9375H32.0938C32.5597 32.9375 32.9375 32.5597 32.9375 32.0938V16.9062C32.9375 16.4403 32.5597 16.0625 32.0938 16.0625Z" stroke="#094854" stroke-width="1.5" stroke-linecap="round" stroke-linejoin="round"/>
<path d="M32.9375 21.9688H35.4688" stroke="#094854" stroke-width="1.5" stroke-linecap="round" stroke-linejoin="round"/>
<path d="M32.9375 27.0312H35.4688" stroke="#094854" stroke-width="1.5" stroke-linecap="round" stroke-linejoin="round"/>
<path d="M13.5312 21.9688H16.0625" stroke="#094854" stroke-width="1.5" stroke-linecap="round" stroke-linejoin="round"/>
<path d="M13.5312 27.0312H16.0625" stroke="#094854" stroke-width="1.5" stroke-linecap="round" stroke-linejoin="round"/>
<path d="M27.0312 32.9375V35.4688" stroke="#094854" stroke-width="1.5" stroke-linecap="round" stroke-linejoin="round"/>
<path d="M21.9688 32.9375V35.4688" stroke="#094854" stroke-width="1.5" stroke-linecap="round" stroke-linejoin="round"/>
<path d="M27.0312 13.5312V16.0625" stroke="#094854" stroke-width="1.5" stroke-linecap="round" stroke-linejoin="round"/>
<path d="M21.9688 13.5312V16.0625" stroke="#094854" stroke-width="1.5" stroke-linecap="round" stroke-linejoin="round"/>
</svg>
