<svg width="48" height="48" viewBox="0 0 48 48" fill="none" xmlns="http://www.w3.org/2000/svg">
<rect width="48" height="48" rx="5" fill="white"/>
<circle cx="24.0979" cy="24" r="3.36735" stroke="#60CEC7" stroke-width="1.88571"/>
<path d="M29.9925 20.217C30.6739 21.2788 31.0559 22.5049 31.0981 23.7659C31.1403 25.0268 30.8411 26.2757 30.2321 27.3807C29.6231 28.4857 28.727 29.4056 27.6384 30.0434C26.5498 30.6811 25.3092 31.013 24.0475 31.0039C22.7859 30.9948 21.5502 30.6451 20.4709 29.9918C19.3915 29.3384 18.5088 28.4057 17.9157 27.2921C17.3227 26.1784 17.0415 24.9253 17.1019 23.6651C17.1622 22.4049 17.5618 21.1844 18.2584 20.1325" stroke="#384654" stroke-width="1.88571"/>
<rect x="23.0204" y="12.1469" width="1.61633" height="8.62041" fill="#73C6C3"/>
<rect x="23.0204" y="30.4653" width="1.61633" height="8.62041" fill="#424242"/>
<rect x="17.5553" y="26.6939" width="1.61633" height="8.62041" transform="rotate(60 17.5553 26.6939)" fill="#424242"/>
<rect x="36.4124" y="15.9184" width="1.61633" height="8.62041" transform="rotate(60 36.4124 15.9184)" fill="#424242"/>
<rect x="29.4857" y="28.121" width="1.61633" height="8.62041" transform="rotate(-62 29.4857 28.121)" fill="#424242"/>
<rect x="10.6286" y="17.8843" width="1.61633" height="8.62041" transform="rotate(-62 10.6286 17.8843)" fill="#424242"/>
<path fill-rule="evenodd" clip-rule="evenodd" d="M14.6358 20.0035C15.4875 19.1719 16.0163 18.011 16.0163 16.7265C16.0163 14.1973 13.966 12.1469 11.4367 12.1469C8.90749 12.1469 6.85713 14.1973 6.85713 16.7265C6.85713 19.2558 8.90749 21.3061 11.4367 21.3061C12.2533 21.3061 13.02 21.0924 13.6839 20.7178L10.5699 19.062C10.3072 18.9223 10.2074 18.5961 10.3471 18.3334C10.4868 18.0707 10.813 17.9709 11.0758 18.1106L14.6358 20.0035Z" fill="#424242"/>
<path fill-rule="evenodd" clip-rule="evenodd" d="M23.8286 14.302C26.3578 14.302 28.4081 12.2517 28.4081 9.72245C28.4081 7.19321 26.3578 5.14286 23.8286 5.14286C21.2993 5.14286 19.249 7.19321 19.249 9.72245C19.249 11.5795 20.3543 13.1783 21.9429 13.897V10.5306C21.9429 10.2331 22.1841 9.99184 22.4816 9.99184C22.7792 9.99184 23.0204 10.2331 23.0204 10.5306V14.231C23.2827 14.2777 23.5528 14.302 23.8286 14.302Z" fill="#73C6C3"/>
<path fill-rule="evenodd" clip-rule="evenodd" d="M36.2204 21.3061C38.7496 21.3061 40.8 19.2558 40.8 16.7265C40.8 14.1973 38.7496 12.1469 36.2204 12.1469C33.6911 12.1469 31.6408 14.1973 31.6408 16.7265C31.6408 16.987 31.6625 17.2425 31.7043 17.4911L34.8949 15.649C35.1526 15.5002 35.4821 15.5885 35.6309 15.8462C35.7797 16.1039 35.6914 16.4334 35.4337 16.5822L32.0196 18.5533C32.7252 20.1734 34.3405 21.3061 36.2204 21.3061Z" fill="#424242"/>
<path fill-rule="evenodd" clip-rule="evenodd" d="M11.4367 35.8531C13.966 35.8531 16.0163 33.8027 16.0163 31.2735C16.0163 31.0861 16.0051 30.9014 15.9832 30.7199L12.7115 32.6089C12.4538 32.7576 12.1243 32.6693 11.9755 32.4117C11.8267 32.154 11.915 31.8245 12.1727 31.6757L15.7132 29.6316C15.0531 27.9134 13.3873 26.6939 11.4367 26.6939C8.90749 26.6939 6.85713 28.7442 6.85713 31.2735C6.85713 33.8027 8.90749 35.8531 11.4367 35.8531Z" fill="#424242"/>
<path fill-rule="evenodd" clip-rule="evenodd" d="M24.6367 33.769C24.3744 33.7223 24.1043 33.698 23.8286 33.698C21.2993 33.698 19.249 35.7483 19.249 38.2776C19.249 40.8068 21.2993 42.8571 23.8286 42.8571C26.3578 42.8571 28.4081 40.8068 28.4081 38.2776C28.4081 36.4206 27.3029 34.8217 25.7143 34.103V37.4694C25.7143 37.7669 25.4731 38.0082 25.1755 38.0082C24.878 38.0082 24.6367 37.7669 24.6367 37.4694V33.769Z" fill="#424242"/>
<path fill-rule="evenodd" clip-rule="evenodd" d="M32.9028 28.1165C32.1208 28.9381 31.6408 30.0497 31.6408 31.2735C31.6408 33.8027 33.6911 35.8531 36.2204 35.8531C38.7496 35.8531 40.8 33.8027 40.8 31.2735C40.8 28.7442 38.7496 26.6939 36.2204 26.6939C35.3361 26.6939 34.5103 26.9445 33.8102 27.3786L36.0453 28.567C36.308 28.7067 36.4078 29.033 36.2681 29.2957C36.1284 29.5584 35.8021 29.6582 35.5394 29.5185L32.9028 28.1165Z" fill="#424242"/>
</svg>
