<svg width="48" height="48" viewBox="0 0 48 48" fill="none" xmlns="http://www.w3.org/2000/svg">
<rect width="48" height="48" rx="5" fill="white"/>
<path d="M11.2205 7.31115C19.7078 3.93671 23.3634 7.86503 24.1303 10.251C25.2808 6.79987 28.2206 4.49912 37.2957 7.31115C37.9093 14.8781 32.4386 16.7698 29.6266 16.7698L25.6642 15.6194L19.9123 16.1307C15.95 16.7698 11.0927 15.3638 11.2205 7.31115Z" fill="#030303"/>
<path d="M12.754 8.34301C20.1454 6.26047 23.7156 13.2192 24.3835 14.6917C25.3854 12.5618 27.559 6.60756 35.4623 8.34301C35.9966 13.013 29.6444 15.5865 27.1955 15.5865L23.9969 16.609L21.8271 14.8195C18.3764 15.214 12.6427 13.3127 12.754 8.34301Z" fill="#61BC40"/>
<circle cx="23.7444" cy="27.7293" r="13.2932" fill="#030303"/>
<circle cx="18.5038" cy="21.4662" r="6.26316" fill="#030303"/>
<circle cx="29.2406" cy="21.7218" r="6.26316" fill="#030303"/>
<circle cx="33.203" cy="26.9624" r="5.36842" fill="#030303"/>
<circle cx="14.797" cy="26.9624" r="5.36842" fill="#030303"/>
<circle cx="17.3534" cy="33.3534" r="5.36842" fill="#030303"/>
<circle cx="30.9023" cy="32.8421" r="5.36842" fill="#030303"/>
<circle cx="24" cy="37.188" r="5.36842" fill="#030303"/>
<ellipse cx="19.1565" cy="24.9454" rx="3.57895" ry="4.21804" transform="rotate(27.6159 19.1565 24.9454)" fill="#E81E80"/>
<ellipse cx="28.7632" cy="24.7688" rx="3.57895" ry="4.21804" transform="rotate(-32.1407 28.7632 24.7688)" fill="#E81E80"/>
<ellipse cx="24.2492" cy="32.3574" rx="3.84858" ry="3.95348" transform="rotate(-32.1407 24.2492 32.3574)" fill="#E81E80"/>
<path d="M27.9063 38.9736C27.9518 40.0477 26.2861 40.9904 24.1861 41.0792C22.086 41.168 20.3467 40.3693 20.3013 39.2952C20.2559 38.221 21.8147 37.91 23.9148 37.8212C26.0148 37.7324 27.8609 37.8994 27.9063 38.9736Z" fill="#E81E80"/>
<path d="M20.2424 18.339C20.3051 17.0306 22.0579 16.0515 24.1575 16.1521C26.257 16.2527 27.9082 17.395 27.8455 18.7033C27.7828 20.0117 26.1997 20.2346 24.1002 20.134C22.0007 20.0333 20.1797 19.6474 20.2424 18.339Z" fill="#E81E80"/>
<path d="M13.6648 21.4127C13.0195 20.6383 13.719 18.9916 15.2272 17.7346C16.7355 16.4776 18.4814 16.0864 19.1267 16.8608C19.7721 17.6352 18.5911 18.458 17.0828 19.715C15.5746 20.972 14.3102 22.1871 13.6648 21.4127Z" fill="#E81E80"/>
<path d="M28.6883 17.0645C29.3666 16.3188 31.0939 16.7852 32.5463 18.1063C33.9988 19.4274 34.6264 21.1029 33.9481 21.8486C33.2698 22.5943 32.2924 21.5377 30.8399 20.2166C29.3875 18.8955 28.01 17.8103 28.6883 17.0645Z" fill="#E81E80"/>
<path d="M34.4244 22.9901C35.5153 22.7845 36.7574 24.4775 37.0813 26.1959C37.4051 27.9144 36.7934 29.9424 35.7026 30.148C34.6118 30.3536 34.4993 28.6049 34.1755 26.8864C33.8516 25.168 33.3336 23.1957 34.4244 22.9901Z" fill="#E81E80"/>
<path d="M12.1996 30.3248C11.0967 30.1989 10.4102 28.2145 10.6085 26.4771C10.8067 24.7397 11.9903 22.9829 13.0932 23.1088C14.1961 23.2346 13.7868 24.9385 13.5885 26.6759C13.3903 28.4133 13.3025 30.4506 12.1996 30.3248Z" fill="#E81E80"/>
<path d="M34.2459 30.1139C35.6712 31.0826 35.7811 33.4062 34.4914 35.3039C33.2016 37.2016 31.0007 37.9547 29.5754 36.986C28.1501 36.0173 28.7891 34.3787 30.0789 32.481C31.3686 30.5834 32.8207 29.1452 34.2459 30.1139Z" fill="#E81E80"/>
<path d="M19.2984 36.8919C18.0794 38.11 15.7764 37.7818 14.1546 36.1587C12.5328 34.5357 12.2062 32.2324 13.4252 31.0143C14.6443 29.7962 16.1338 30.7315 17.7556 32.3546C19.3774 33.9776 20.5174 35.6738 19.2984 36.8919Z" fill="#E81E80"/>
</svg>
