<svg width="48" height="48" viewBox="0 0 48 48" fill="none" xmlns="http://www.w3.org/2000/svg">
<rect width="48" height="48" rx="5" fill="white"/>
<path d="M10.2857 14.7646L11.726 14.3325V33.9203L10.2857 33.2002V14.7646Z" fill="#985129"/>
<path d="M14.3185 14.7646L11.726 14.3325V33.9203L14.3185 33.2002V14.7646Z" fill="#F38536"/>
<path d="M20.3677 13.3879L14.8946 12.8923V35.3606L20.3677 34.5346V13.3879Z" fill="#F38536"/>
<path d="M26.1288 11.7358L18.6394 11.1639V37.0889L26.1288 36.1358V11.7358Z" fill="#F38536"/>
<path d="M37.507 14.9087L23.8243 8.57143V39.3934L37.507 33.4882V14.9087Z" fill="#F38536"/>
<path d="M13.1663 13.3852L14.8946 12.8923V35.3606L13.1663 34.4964V13.3852Z" fill="#985129"/>
<path d="M16.623 12.0153L18.6393 11.1639V37.0889L16.623 36.1585V12.0153Z" fill="#985129"/>
<path d="M20.9438 10.0949L23.8243 8.71545V39.5374L20.9438 38.2262V10.0949Z" fill="#985129"/>
</svg>
