<svg width="48" height="48" viewBox="0 0 48 48" fill="none" xmlns="http://www.w3.org/2000/svg">
<rect width="48" height="48" rx="5" fill="white"/>
<circle cx="11.1429" cy="16.2857" r="3.42857" fill="#DF670C"/>
<circle cx="11.1429" cy="31.7143" r="3.42857" fill="#020404"/>
<circle cx="15.4286" cy="8.57143" r="3.42857" fill="#DF670C"/>
<circle cx="15.4286" cy="39.4286" r="3.42857" fill="#DF670C"/>
<circle cx="28.2857" cy="16.2857" r="3.42857" fill="#DF670C"/>
<circle cx="28.2857" cy="31.7143" r="3.42857" fill="#020404"/>
<circle cx="32.5714" cy="8.57143" r="3.42857" fill="#DF670C"/>
<circle cx="32.5714" cy="39.4286" r="3.42857" fill="#DF670C"/>
<circle cx="6.85714" cy="24" r="3.42857" fill="#DF670C"/>
<circle cx="24" cy="24" r="3.42857" fill="#020404"/>
<circle cx="41.1429" cy="24" r="3.42857" fill="#DF670C"/>
<circle cx="19.7143" cy="16.2857" r="3.42857" fill="#020404"/>
<circle cx="19.7143" cy="31.7143" r="3.42857" fill="#DF670C"/>
<circle cx="24" cy="8.57143" r="3.42857" fill="#020404"/>
<circle cx="24" cy="39.4286" r="3.42857" fill="#020404"/>
<circle cx="32.5714" cy="24" r="3.42857" fill="#020404"/>
<circle cx="36.8571" cy="16.2857" r="3.42857" fill="#020404"/>
<circle cx="36.8571" cy="31.7143" r="3.42857" fill="#DF670C"/>
<circle cx="15.4286" cy="24" r="3.42857" fill="#020404"/>
</svg>
