<svg width="48" height="48" viewBox="0 0 48 48" fill="none" xmlns="http://www.w3.org/2000/svg">
<rect width="48" height="48" rx="5" fill="white"/>
<path d="M4.24429 27.2229C3.78429 27.2229 3.34096 27.1695 2.91429 27.0629C2.49429 26.9495 2.16096 26.8095 1.91429 26.6429L2.43429 25.5229C2.68096 25.6762 2.97096 25.8029 3.30429 25.9029C3.64429 25.9962 3.97763 26.0429 4.30429 26.0429C4.66429 26.0429 4.91763 25.9995 5.06429 25.9129C5.21763 25.8262 5.29429 25.7062 5.29429 25.5529C5.29429 25.4262 5.23429 25.3329 5.11429 25.2729C5.00096 25.2062 4.84763 25.1562 4.65429 25.1229C4.46096 25.0895 4.24763 25.0562 4.01429 25.0229C3.78763 24.9895 3.55763 24.9462 3.32429 24.8929C3.09096 24.8329 2.87763 24.7462 2.68429 24.6329C2.49096 24.5195 2.33429 24.3662 2.21429 24.1729C2.10096 23.9795 2.04429 23.7295 2.04429 23.4229C2.04429 23.0829 2.14096 22.7829 2.33429 22.5229C2.53429 22.2629 2.82096 22.0595 3.19429 21.9129C3.56763 21.7595 4.01429 21.6829 4.53429 21.6829C4.90096 21.6829 5.27429 21.7229 5.65429 21.8029C6.03429 21.8829 6.35096 21.9995 6.60429 22.1529L6.08429 23.2629C5.82429 23.1095 5.56096 23.0062 5.29429 22.9529C5.03429 22.8929 4.78096 22.8629 4.53429 22.8629C4.18763 22.8629 3.93429 22.9095 3.77429 23.0029C3.61429 23.0962 3.53429 23.2162 3.53429 23.3629C3.53429 23.4962 3.59096 23.5962 3.70429 23.6629C3.82429 23.7295 3.98096 23.7829 4.17429 23.8229C4.36763 23.8629 4.57763 23.8995 4.80429 23.9329C5.03763 23.9595 5.27096 24.0029 5.50429 24.0629C5.73763 24.1229 5.94763 24.2095 6.13429 24.3229C6.32763 24.4295 6.48429 24.5795 6.60429 24.7729C6.72429 24.9595 6.78429 25.2062 6.78429 25.5129C6.78429 25.8462 6.68429 26.1429 6.48429 26.4029C6.28429 26.6562 5.99429 26.8562 5.61429 27.0029C5.24096 27.1495 4.78429 27.2229 4.24429 27.2229ZM10.4168 27.2229C9.80346 27.2229 9.26346 27.1029 8.79679 26.8629C8.33679 26.6229 7.98013 26.2962 7.72679 25.8829C7.47346 25.4629 7.34679 24.9862 7.34679 24.4529C7.34679 23.9129 7.47013 23.4362 7.71679 23.0229C7.97013 22.6029 8.31346 22.2762 8.74679 22.0429C9.18013 21.8029 9.67013 21.6829 10.2168 21.6829C10.7435 21.6829 11.2168 21.7962 11.6368 22.0229C12.0635 22.2429 12.4001 22.5629 12.6468 22.9829C12.8935 23.3962 13.0168 23.8929 13.0168 24.4729C13.0168 24.5329 13.0135 24.6029 13.0068 24.6829C13.0001 24.7562 12.9935 24.8262 12.9868 24.8929H8.61679V23.9829H12.1668L11.5668 24.2529C11.5668 23.9729 11.5101 23.7295 11.3968 23.5229C11.2835 23.3162 11.1268 23.1562 10.9268 23.0429C10.7268 22.9229 10.4935 22.8629 10.2268 22.8629C9.96013 22.8629 9.72346 22.9229 9.51679 23.0429C9.31679 23.1562 9.16013 23.3195 9.04679 23.5329C8.93346 23.7395 8.87679 23.9862 8.87679 24.2729V24.5129C8.87679 24.8062 8.94013 25.0662 9.06679 25.2929C9.20013 25.5129 9.38346 25.6829 9.61679 25.8029C9.85679 25.9162 10.1368 25.9729 10.4568 25.9729C10.7435 25.9729 10.9935 25.9295 11.2068 25.8429C11.4268 25.7562 11.6268 25.6262 11.8068 25.4529L12.6368 26.3529C12.3901 26.6329 12.0801 26.8495 11.7068 27.0029C11.3335 27.1495 10.9035 27.2229 10.4168 27.2229ZM16.6554 27.2229C16.0754 27.2229 15.5587 27.1062 15.1054 26.8729C14.6521 26.6329 14.2954 26.3029 14.0354 25.8829C13.7821 25.4629 13.6554 24.9862 13.6554 24.4529C13.6554 23.9129 13.7821 23.4362 14.0354 23.0229C14.2954 22.6029 14.6521 22.2762 15.1054 22.0429C15.5587 21.8029 16.0754 21.6829 16.6554 21.6829C17.2221 21.6829 17.7154 21.8029 18.1354 22.0429C18.5554 22.2762 18.8654 22.6129 19.0654 23.0529L17.8554 23.7029C17.7154 23.4495 17.5387 23.2629 17.3254 23.1429C17.1187 23.0229 16.8921 22.9629 16.6454 22.9629C16.3787 22.9629 16.1387 23.0229 15.9254 23.1429C15.7121 23.2629 15.5421 23.4329 15.4154 23.6529C15.2954 23.8729 15.2354 24.1395 15.2354 24.4529C15.2354 24.7662 15.2954 25.0329 15.4154 25.2529C15.5421 25.4729 15.7121 25.6429 15.9254 25.7629C16.1387 25.8829 16.3787 25.9429 16.6454 25.9429C16.8921 25.9429 17.1187 25.8862 17.3254 25.7729C17.5387 25.6529 17.7154 25.4629 17.8554 25.2029L19.0654 25.8629C18.8654 26.2962 18.5554 26.6329 18.1354 26.8729C17.7154 27.1062 17.2221 27.2229 16.6554 27.2229ZM22.2336 27.2229C21.7869 27.2229 21.3869 27.1362 21.0336 26.9629C20.6869 26.7895 20.4169 26.5262 20.2236 26.1729C20.0303 25.8129 19.9336 25.3562 19.9336 24.8029V21.7629H21.4936V24.5729C21.4936 25.0195 21.5869 25.3495 21.7736 25.5629C21.9669 25.7695 22.2369 25.8729 22.5836 25.8729C22.8236 25.8729 23.0369 25.8229 23.2236 25.7229C23.4103 25.6162 23.5569 25.4562 23.6636 25.2429C23.7703 25.0229 23.8236 24.7495 23.8236 24.4229V21.7629H25.3836V27.1429H23.9036V25.6629L24.1736 26.0929C23.9936 26.4662 23.7269 26.7495 23.3736 26.9429C23.0269 27.1295 22.6469 27.2229 22.2336 27.2229Z" fill="#303030"/>
<path d="M30.0988 21.6829C30.5255 21.6829 30.9055 21.7695 31.2388 21.9429C31.5788 22.1095 31.8455 22.3695 32.0388 22.7229C32.2322 23.0695 32.3288 23.5162 32.3288 24.0629V27.1429H30.7688V24.3029C30.7688 23.8695 30.6722 23.5495 30.4788 23.3429C30.2922 23.1362 30.0255 23.0329 29.6788 23.0329C29.4322 23.0329 29.2088 23.0862 29.0088 23.1929C28.8155 23.2929 28.6622 23.4495 28.5488 23.6629C28.4422 23.8762 28.3888 24.1495 28.3888 24.4829V27.1429H26.8288V21.7629H28.3188V23.2529L28.0388 22.8029C28.2322 22.4429 28.5088 22.1662 28.8688 21.9729C29.2288 21.7795 29.6388 21.6829 30.0988 21.6829ZM36.452 27.2229C35.8386 27.2229 35.2986 27.1029 34.832 26.8629C34.372 26.6229 34.0153 26.2962 33.762 25.8829C33.5086 25.4629 33.382 24.9862 33.382 24.4529C33.382 23.9129 33.5053 23.4362 33.752 23.0229C34.0053 22.6029 34.3486 22.2762 34.782 22.0429C35.2153 21.8029 35.7053 21.6829 36.252 21.6829C36.7786 21.6829 37.252 21.7962 37.672 22.0229C38.0986 22.2429 38.4353 22.5629 38.682 22.9829C38.9286 23.3962 39.052 23.8929 39.052 24.4729C39.052 24.5329 39.0486 24.6029 39.042 24.6829C39.0353 24.7562 39.0286 24.8262 39.022 24.8929H34.652V23.9829H38.202L37.602 24.2529C37.602 23.9729 37.5453 23.7295 37.432 23.5229C37.3186 23.3162 37.162 23.1562 36.962 23.0429C36.762 22.9229 36.5286 22.8629 36.262 22.8629C35.9953 22.8629 35.7586 22.9229 35.552 23.0429C35.352 23.1562 35.1953 23.3195 35.082 23.5329C34.9686 23.7395 34.912 23.9862 34.912 24.2729V24.5129C34.912 24.8062 34.9753 25.0662 35.102 25.2929C35.2353 25.5129 35.4186 25.6829 35.652 25.8029C35.892 25.9162 36.172 25.9729 36.492 25.9729C36.7786 25.9729 37.0286 25.9295 37.242 25.8429C37.462 25.7562 37.662 25.6262 37.842 25.4529L38.672 26.3529C38.4253 26.6329 38.1153 26.8495 37.742 27.0029C37.3686 27.1495 36.9386 27.2229 36.452 27.2229ZM42.2905 27.2229C41.6572 27.2229 41.1639 27.0629 40.8105 26.7429C40.4572 26.4162 40.2805 25.9329 40.2805 25.2929V20.5729H41.8405V25.2729C41.8405 25.4995 41.9005 25.6762 42.0205 25.8029C42.1405 25.9229 42.3039 25.9829 42.5105 25.9829C42.7572 25.9829 42.9672 25.9162 43.1405 25.7829L43.5605 26.8829C43.4005 26.9962 43.2072 27.0829 42.9805 27.1429C42.7605 27.1962 42.5305 27.2229 42.2905 27.2229ZM39.4505 23.0829V21.8829H43.1805V23.0829H39.4505Z" fill="#F32F50"/>
</svg>
