<svg width="48" height="48" viewBox="0 0 48 48" fill="none" xmlns="http://www.w3.org/2000/svg">
<rect width="48" height="48" rx="5" fill="white"/>
<g clip-path="url(#clip0_6916_8857)">
<path fill-rule="evenodd" clip-rule="evenodd" d="M39.5228 19H41.9895L41.1919 22.7181L41.2205 22.7473C41.5545 22.239 42.4688 21.6143 43.7888 21.6143C45.1382 21.6143 45.9506 22.4421 45.9506 23.7351C45.9506 24.2286 45.7771 24.9841 45.6894 25.361L44.7902 29.37H42.3235L43.1793 25.3762C43.2518 25.0272 43.325 24.7078 43.325 24.4175C43.325 23.8223 42.9476 23.5025 42.4252 23.5025C40.9016 23.5025 40.7272 24.9401 40.466 26.1751L39.7989 29.37H37.3322L39.5228 19ZM35.1538 24.5774C35.1683 24.2142 35.0524 23.9236 34.8495 23.7207C34.6608 23.5312 34.3996 23.4444 34.051 23.4298C32.6003 23.3718 32.1504 24.8968 32.1504 26.0441C32.1504 27.1337 32.5712 27.7729 33.3978 27.7729C34.1818 27.7729 34.6462 27.2642 34.8349 26.4947H37.2285C36.7789 28.6441 35.2845 29.5882 33.2962 29.5882C31.2075 29.5882 29.6837 28.5278 29.6837 26.3059C29.6837 23.6333 31.4393 21.6145 34.1672 21.6145C36.0681 21.6145 37.5334 22.5583 37.5477 24.5774H35.1538ZM23.6304 26.2039C23.6158 26.3491 23.6013 26.4654 23.6013 26.7126C23.6741 27.4964 24.1234 27.9179 24.9364 27.9179C25.7776 27.9179 26.1839 27.5984 26.3726 27.0897H28.781C28.1864 28.8908 26.6629 29.588 24.8348 29.588C22.7451 29.588 21.2213 28.5279 21.2213 26.306C21.2213 23.6334 22.9772 21.6143 25.7054 21.6143C27.6491 21.6143 29.1438 22.733 29.1438 24.9115C29.1438 25.3609 29.115 25.7824 29.0571 26.2039H23.6304ZM26.7645 24.8241C26.8367 23.9817 26.4454 23.2845 25.6178 23.2845C24.6027 23.2845 24.0657 23.88 23.8042 24.8241H26.7645ZM17.8514 19.0001H23.5697L23.1061 21.3238H20.0587L18.3611 29.3702H15.6623L17.8514 19.0001ZM11.324 19.0001H16.9986L16.5338 21.3238H13.487L11.7897 29.3702H9.0909L11.324 19.0001ZM1.68419 19.0001H10.4771L10.0123 21.3238H6.96589L5.26791 29.3702H2.56943L4.2671 21.3238H1.21973L1.68419 19.0001Z" fill="#0093D0"/>
</g>
<defs>
<clipPath id="clip0_6916_8857">
<rect width="45" height="10.5882" fill="white" transform="translate(1 19)"/>
</clipPath>
</defs>
</svg>
